<?xml version="1.0" encoding="UTF-8" standalone="no"?><!DOCTYPE svg PUBLIC "-//W3C//DTD SVG 1.1//EN" "http://www.w3.org/Graphics/SVG/1.1/DTD/svg11.dtd"><svg width="100%" height="100%" viewBox="0 0 520 160" version="1.1" xmlns="http://www.w3.org/2000/svg" xmlns:xlink="http://www.w3.org/1999/xlink" xml:space="preserve" xmlns:serif="http://www.serif.com/" style="fill-rule:evenodd;clip-rule:evenodd;stroke-linecap:round;stroke-linejoin:round;stroke-miterlimit:1.5;"><path d="M260,60l200,0" style="fill:none;stroke:#000;stroke-width:1px;"/><path d="M260,140l200,0" style="fill:none;stroke:#000;stroke-width:1px;"/><path d="M60,100.006l200,-0" style="fill:none;stroke:#000;stroke-width:1px;"/><path d="M260,26.285l0,123.715" style="fill:none;stroke:#aaa;stroke-width:1px;stroke-dasharray:1,1;stroke-dashoffset:100;"/><g><ellipse cx="331.25" cy="112.998" rx="7.5" ry="6.713" style="fill:#56f;"/><path d="M331.25,121.054c6.209,0 11.25,5.415 11.25,12.084c0,1.298 -6.541,-0 -12.75,-0c-6.209,-0 -9.75,1.298 -9.75,-0c-0,-6.669 5.041,-12.084 11.25,-12.084Z" style="fill:#56f;"/></g><g><ellipse cx="331.25" cy="32.998" rx="7.5" ry="6.713" style="fill:#56f;"/><path d="M331.25,41.054c6.209,0 11.25,5.415 11.25,12.084c0,1.298 -6.541,-0 -12.75,-0c-6.209,-0 -9.75,1.298 -9.75,-0c0,-6.669 5.041,-12.084 11.25,-12.084Z" style="fill:#56f;"/></g><text x="327.193px" y="51.625px" style="font-family:'ArialMT', 'Arial', sans-serif;font-size:12px;fill:#fff;">1</text><text x="328.462px" y="131.312px" style="font-family:'ArialMT', 'Arial', sans-serif;font-size:12px;fill:#fff;">2</text><g><ellipse cx="151.25" cy="73.004" rx="7.5" ry="6.713" style="fill:#56f;"/><path d="M151.25,81.06c6.209,-0 11.25,5.414 11.25,12.084c0,1.298 -6.541,-0 -12.75,-0c-6.209,-0 -9.75,1.298 -9.75,-0c-0,-6.67 5.041,-12.084 11.25,-12.084Z" style="fill:#56f;"/></g><text x="148.462px" y="91.318px" style="font-family:'ArialMT', 'Arial', sans-serif;font-size:12px;fill:#fff;">2</text><text x="250.746px" y="18.105px" style="font-family:'ArialMT', 'Arial', sans-serif;font-size:12px;fill:#56f;">Splitsing adresseerbaar object</text><text x="10.848px" y="104.242px" style="font-family:'ArialMT', 'Arial', sans-serif;font-size:12px;fill:#56f;">Adres 1</text><text x="469.277px" y="62.34px" style="font-family:'ArialMT', 'Arial', sans-serif;font-size:12px;fill:#56f;">Adres 2</text><g><ellipse cx="118.75" cy="73.004" rx="7.5" ry="6.713" style="fill:#56f;"/><path d="M118.75,81.06c6.209,-0 11.25,5.414 11.25,12.084c0,1.298 -6.541,-0 -12.75,-0c-6.209,-0 -9.75,1.298 -9.75,-0c-0,-6.67 5.041,-12.084 11.25,-12.084Z" style="fill:#56f;"/></g><text x="114.693px" y="91.631px" style="font-family:'ArialMT', 'Arial', sans-serif;font-size:12px;fill:#fff;">1</text><text x="469.604px" y="144.236px" style="font-family:'ArialMT', 'Arial', sans-serif;font-size:12px;fill:#56f;">Adres 3</text></svg>