<?xml version="1.0" encoding="UTF-8" standalone="no"?><!DOCTYPE svg PUBLIC "-//W3C//DTD SVG 1.1//EN" "http://www.w3.org/Graphics/SVG/1.1/DTD/svg11.dtd"><svg width="100%" height="100%" viewBox="0 0 390 74" version="1.1" xmlns="http://www.w3.org/2000/svg" xmlns:xlink="http://www.w3.org/1999/xlink" xml:space="preserve" xmlns:serif="http://www.serif.com/" style="fill-rule:evenodd;clip-rule:evenodd;stroke-linecap:round;stroke-linejoin:round;stroke-miterlimit:1.5;"><g><path d="M95.617,55.617l232.986,-0" style="fill:none;stroke:#000;stroke-width:5px;"/></g><g><path d="M165.365,20.918l-108.086,-0.912" style="fill:none;"/><path d="M165.386,18.418l-108.086,-0.912c-1.38,-0.011 -2.509,1.099 -2.521,2.479c-0.012,1.38 1.099,2.509 2.479,2.521l108.086,0.912c1.38,0.011 2.509,-1.099 2.521,-2.479c0.012,-1.38 -1.099,-2.509 -2.479,-2.521Z" style="fill:#aaa;"/></g><g><text x="10.018px" y="24.242px" style="font-family:'ArialMT', 'Arial', sans-serif;font-size:12px;fill:#56f;">Adres 1</text></g><g><text x="333.734px" y="59.404px" style="font-family:'ArialMT', 'Arial', sans-serif;font-size:12px;fill:#56f;">Adres 2</text></g><g><path d="M95.268,52.955l-14.296,-0.912c-0.194,-0.012 -0.354,1.171 -0.355,2.64c-0.002,1.469 0.155,2.672 0.349,2.684l14.296,0.912c0.194,0.012 0.353,-1.171 0.355,-2.64c0.002,-1.469 -0.155,-2.672 -0.349,-2.684Z" style="fill:#aaa;"/></g></svg>