<?xml version="1.0" encoding="UTF-8" standalone="no"?><!DOCTYPE svg PUBLIC "-//W3C//DTD SVG 1.1//EN" "http://www.w3.org/Graphics/SVG/1.1/DTD/svg11.dtd"><svg width="100%" height="100%" viewBox="0 0 390 74" version="1.1" xmlns="http://www.w3.org/2000/svg" xmlns:xlink="http://www.w3.org/1999/xlink" xml:space="preserve" xmlns:serif="http://www.serif.com/" style="fill-rule:evenodd;clip-rule:evenodd;stroke-linecap:round;stroke-linejoin:round;stroke-miterlimit:1.5;"><g><path d="M166.543,56l161.443,0" style="fill:none;stroke:#000;stroke-width:4.02px;"/><path d="M89,21l75,0" style="fill:none;stroke:#000;stroke-width:3.13px;stroke-dasharray:3.13,3.13;"/></g><g><path d="M164.064,53.815l-108.086,-0.771c-1.38,-0.009 -2.509,0.929 -2.521,2.097c-0.012,1.167 1.099,2.121 2.479,2.132l108.086,0.771c1.38,0.009 2.509,-0.93 2.521,-2.097c0.012,-1.167 -1.099,-2.122 -2.479,-2.132Z" style="fill:#aaa;"/><path d="M86.091,18.967l-14.357,-0.159c-0.183,-0.002 -0.292,0.942 -0.244,2.109c0.048,1.166 0.236,2.113 0.419,2.116l14.357,0.159c0.183,0.002 0.292,-0.942 0.244,-2.109c-0.048,-1.166 -0.236,-2.113 -0.419,-2.116Z" style="fill:#aaa;"/></g><g><text x="10.018px" y="24.242px" style="font-family:'ArialMT', 'Arial', sans-serif;font-size:12px;fill:#56f;">Adres 1</text></g><g><text x="333.734px" y="57.286px" style="font-family:'ArialMT', 'Arial', sans-serif;font-size:12px;fill:#56f;">Adres 2</text></g></svg>